<svg width="15" height="37" viewBox="0 0 15 37" fill="none" xmlns="http://www.w3.org/2000/svg">
<path opacity="0.4" d="M1.93311 5.43606H13.0731" stroke="#0601B4" stroke-linecap="round" stroke-linejoin="round"/>
<path opacity="0.4" fill-rule="evenodd" clip-rule="evenodd" d="M4.22363 8.03986C4.22363 7.76371 4.44749 7.53986 4.72363 7.53986H4.72942C5.00557 7.53986 5.22942 7.76371 5.22942 8.03986C5.22942 8.316 5.00557 8.53986 4.72942 8.53986H4.72363C4.44749 8.53986 4.22363 8.316 4.22363 8.03986ZM7.50283 7.53986C7.22669 7.53986 7.00283 7.76371 7.00283 8.03986C7.00283 8.316 7.22669 8.53986 7.50283 8.53986H7.50862C7.78477 8.53986 8.00863 8.316 8.00863 8.03986C8.00863 7.76371 7.78477 7.53986 7.50862 7.53986H7.50283ZM10.2762 7.53986C10.0001 7.53986 9.77625 7.76371 9.77625 8.03986C9.77625 8.316 10.0001 8.53986 10.2762 8.53986H10.282C10.5582 8.53986 10.782 8.316 10.782 8.03986C10.782 7.76371 10.5582 7.53986 10.282 7.53986H10.2762ZM10.2762 10.1307C10.0001 10.1307 9.77625 10.3546 9.77625 10.6307C9.77625 10.9069 10.0001 11.1307 10.2762 11.1307H10.282C10.5582 11.1307 10.782 10.9069 10.782 10.6307C10.782 10.3546 10.5582 10.1307 10.282 10.1307H10.2762ZM7.00283 10.6307C7.00283 10.3546 7.22669 10.1307 7.50283 10.1307H7.50862C7.78477 10.1307 8.00863 10.3546 8.00863 10.6307C8.00863 10.9069 7.78477 11.1307 7.50862 11.1307H7.50283C7.22669 11.1307 7.00283 10.9069 7.00283 10.6307ZM4.72363 10.1307C4.44749 10.1307 4.22363 10.3546 4.22363 10.6307C4.22363 10.9069 4.44749 11.1307 4.72363 11.1307H4.72942C5.00557 11.1307 5.22942 10.9069 5.22942 10.6307C5.22942 10.3546 5.00557 10.1307 4.72942 10.1307H4.72363Z" fill="#0601B4"/>
<path d="M10.0273 0.5V2.69385" stroke="#0601B4" stroke-linecap="round" stroke-linejoin="round"/>
<path d="M4.97846 0.5V2.69385" stroke="#0601B4" stroke-linecap="round" stroke-linejoin="round"/>
<path fill-rule="evenodd" clip-rule="evenodd" d="M10.1489 1.55286H4.85685C3.02142 1.55286 1.875 2.64348 1.875 4.64821V10.6813C1.875 12.7176 3.02142 13.8334 4.85685 13.8334H10.1431C11.9843 13.8334 13.125 12.7365 13.125 10.7317V4.64821C13.1308 2.64348 11.9901 1.55286 10.1489 1.55286Z" stroke="#0601B4" stroke-linecap="round" stroke-linejoin="round"/>
</svg>
