<svg width="18" height="18" viewBox="0 0 18 18" fill="none" xmlns="http://www.w3.org/2000/svg">
<path d="M2.81812 11.575C2.81812 11.4645 2.90766 11.375 3.01812 11.375H4.61812C4.72857 11.375 4.81812 11.4645 4.81812 11.575V15.175C4.81812 15.2855 4.72857 15.375 4.61812 15.375H3.01812C2.90766 15.375 2.81812 15.2855 2.81812 15.175V11.575Z" fill="#F5F5F5"/>
<path d="M5.81812 9.575C5.81812 9.46454 5.90766 9.375 6.01812 9.375H7.61812C7.72857 9.375 7.81812 9.46454 7.81812 9.575V15.175C7.81812 15.2855 7.72857 15.375 7.61812 15.375H6.01812C5.90766 15.375 5.81812 15.2855 5.81812 15.175V9.575Z" fill="#F5F5F5"/>
<path d="M8.81812 6.575C8.81812 6.46454 8.90766 6.375 9.01812 6.375H10.6181C10.7286 6.375 10.8181 6.46454 10.8181 6.575V15.175C10.8181 15.2855 10.7286 15.375 10.6181 15.375H9.01812C8.90766 15.375 8.81812 15.2855 8.81812 15.175V6.575Z" fill="#F5F5F5"/>
<path d="M11.8181 3.575C11.8181 3.46454 11.9077 3.375 12.0181 3.375H13.6181C13.7286 3.375 13.8181 3.46454 13.8181 3.575V15.175C13.8181 15.2855 13.7286 15.375 13.6181 15.375H12.0181C11.9077 15.375 11.8181 15.2855 11.8181 15.175V3.575Z" fill="#F5F5F5"/>
</svg>
