<svg width="15" height="15" viewBox="0 0 15 15" fill="none" xmlns="http://www.w3.org/2000/svg">
<path d="M4.85747 1.52426L5.53059 1.30926C6.16059 1.10801 6.83434 1.43363 7.10434 2.06988L7.64184 3.33738C7.87622 3.88926 7.74622 4.53863 7.32059 4.94238L6.13747 6.06613C6.21059 6.73863 6.43622 7.40051 6.81497 8.05176C7.17486 8.68187 7.65751 9.23337 8.23434 9.67363L9.65684 9.19863C10.1956 9.01926 10.7825 9.22613 11.1131 9.71176L11.8831 10.843C12.2681 11.408 12.1987 12.1868 11.7218 12.6655L11.2106 13.1786C10.7018 13.6893 9.97559 13.8749 9.30309 13.6649C7.71622 13.1699 6.25747 11.7005 4.92622 9.25676C3.59309 6.80926 3.12309 4.73176 3.51497 3.02676C3.67997 2.30926 4.19122 1.73738 4.85872 1.52426" fill="#EEF1F7"/>
</svg>
