<svg width="19" height="19" viewBox="0 0 19 19" fill="none" xmlns="http://www.w3.org/2000/svg">
<path fill-rule="evenodd" clip-rule="evenodd" d="M2.27883 4.65395C2.72423 4.20855 3.32832 3.95833 3.95821 3.95833H13.4582C14.0881 3.95833 14.6922 4.20855 15.1376 4.65395C15.583 5.09935 15.8332 5.70344 15.8332 6.33333V6.46915C16.164 6.58613 16.4681 6.77609 16.7209 7.02895C17.1663 7.47435 17.4165 8.07844 17.4165 8.70833V10.2917C17.4165 10.9215 17.1663 11.5256 16.7209 11.971C16.4681 12.2239 16.164 12.4139 15.8332 12.5308V12.6667C15.8332 13.2965 15.583 13.9006 15.1376 14.346C14.6922 14.7914 14.0881 15.0417 13.4582 15.0417H3.95821C3.32832 15.0417 2.72423 14.7914 2.27883 14.346C1.83343 13.9006 1.58321 13.2965 1.58321 12.6667V6.33333C1.58321 5.70344 1.83343 5.09935 2.27883 4.65395ZM3.95821 5.54166C3.74825 5.54166 3.54688 5.62507 3.39842 5.77353C3.24995 5.922 3.16654 6.12336 3.16654 6.33333V12.6667C3.16654 12.8766 3.24995 13.078 3.39842 13.2265C3.54688 13.3749 3.74825 13.4583 3.95821 13.4583H13.4582C13.6682 13.4583 13.8695 13.3749 14.018 13.2265C14.1665 13.078 14.2499 12.8766 14.2499 12.6667V11.875C14.2499 11.4378 14.6043 11.0833 15.0415 11.0833C15.2515 11.0833 15.4529 10.9999 15.6013 10.8515C15.7498 10.703 15.8332 10.5016 15.8332 10.2917V8.70833C15.8332 8.49836 15.7498 8.297 15.6013 8.14853C15.4529 8.00007 15.2515 7.91666 15.0415 7.91666C14.6043 7.91666 14.2499 7.56222 14.2499 7.12499V6.33333C14.2499 6.12336 14.1665 5.922 14.018 5.77353C13.8695 5.62507 13.6682 5.54166 13.4582 5.54166H3.95821Z" fill="black"/>
<path d="M4.30667 6.96667C4.30667 6.68684 4.53351 6.46 4.81333 6.46H11.4C11.6798 6.46 11.9067 6.68684 11.9067 6.96667V12.0333C11.9067 12.3132 11.6798 12.54 11.4 12.54H4.81333C4.53351 12.54 4.30667 12.3132 4.30667 12.0333V6.96667Z" fill="black"/>
</svg>
