<svg width="33" height="8" viewBox="0 0 33 8" fill="none" xmlns="http://www.w3.org/2000/svg">
<path d="M28.4329 5.02048C28.5696 5.12845 28.8036 5.27601 29.1347 5.46315C29.473 5.65029 29.7933 5.74387 30.0956 5.74387C30.4051 5.74387 30.5598 5.6251 30.5598 5.38757C30.5598 5.27961 30.5166 5.18603 30.4303 5.10686C30.3439 5.02048 30.1855 4.92331 29.9552 4.81535C29.7249 4.70738 29.5521 4.6246 29.437 4.56702C29.3218 4.50224 29.167 4.40147 28.9727 4.26471C28.7856 4.12076 28.6416 3.9732 28.5408 3.82205C28.2529 3.41177 28.109 2.88993 28.109 2.25652C28.109 1.62311 28.3429 1.09047 28.8108 0.658602C29.2858 0.219534 29.9048 0 30.6678 0C31.186 0 31.6647 0.0575826 32.1038 0.172748C32.5428 0.280715 32.7696 0.424672 32.784 0.604617C32.784 0.626211 32.784 0.647804 32.784 0.669398C32.784 0.921322 32.7048 1.24163 32.5464 1.63031C32.3881 2.01179 32.2765 2.22413 32.2117 2.26732C31.7511 2.02979 31.3372 1.91102 30.9701 1.91102C30.6102 1.91102 30.4303 2.04058 30.4303 2.29971C30.4303 2.45806 30.5634 2.59842 30.8297 2.72078C30.8873 2.74957 30.9701 2.78916 31.0781 2.83954C31.186 2.88993 31.3084 2.95111 31.4452 3.02309C31.5891 3.08787 31.7403 3.17424 31.8986 3.28221C32.0642 3.38298 32.2405 3.51974 32.4277 3.69248C32.8091 4.05238 32.9999 4.52743 32.9999 5.11765C32.9999 5.88782 32.7876 6.51763 32.3629 7.00708C31.9382 7.49654 31.2832 7.74846 30.3979 7.76286C29.966 7.76286 29.5737 7.72687 29.221 7.65489C28.8755 7.58291 28.5732 7.44255 28.3141 7.23382C28.055 7.02508 27.9254 6.77315 27.9254 6.47804C27.9254 6.18293 27.9794 5.89142 28.0874 5.60351C28.1953 5.3084 28.3105 5.11406 28.4329 5.02048Z" fill="#5B0888"/>
<path d="M22.9339 7.67648C22.2789 7.67648 21.9514 7.6045 21.9514 7.46055V0.464262C21.9514 0.219535 22.063 0.0971723 22.2861 0.0971723H24.1864C25.2516 0.0971723 26.0182 0.316706 26.4861 0.755773C26.9611 1.19484 27.1987 1.83185 27.1987 2.6668C27.1987 3.35779 26.9755 3.9912 26.5293 4.56702C26.3061 4.85493 25.9786 5.08527 25.5468 5.25801C25.1149 5.43076 24.611 5.51714 24.0352 5.51714V7.44975C24.0352 7.53613 23.8984 7.59731 23.6249 7.6333C23.3586 7.66209 23.1283 7.67648 22.9339 7.67648ZM24.0352 1.9758V3.68169H24.1756C24.4275 3.68169 24.6398 3.60251 24.8126 3.44416C24.9853 3.28581 25.0717 3.06268 25.0717 2.77476C25.0717 2.48685 25.0105 2.28171 24.8882 2.15935C24.773 2.03699 24.5642 1.9758 24.2619 1.9758H24.0352Z" fill="#5B0888"/>
<path d="M18.0786 5.79785V1.95421H17.3121C17.1897 1.95421 17.1033 1.79946 17.053 1.48995C17.0314 1.3388 17.0206 1.18404 17.0206 1.02569C17.0206 0.86734 17.0314 0.712587 17.053 0.561432C17.1033 0.251926 17.1897 0.0971723 17.3121 0.0971723H20.9398C21.0621 0.0971723 21.1449 0.251926 21.1881 0.561432C21.2169 0.712587 21.2313 0.86734 21.2313 1.02569C21.2313 1.18404 21.2169 1.3388 21.1881 1.48995C21.1449 1.79946 21.0621 1.95421 20.9398 1.95421H20.2164V5.79785H20.9722C21.0945 5.79785 21.1809 5.9526 21.2313 6.26211C21.2601 6.41326 21.2745 6.56802 21.2745 6.72637C21.2745 6.88472 21.2601 7.03948 21.2313 7.19063C21.1809 7.50014 21.0945 7.65489 20.9722 7.65489H17.3337C17.2113 7.65489 17.1285 7.50014 17.0853 7.19063C17.0566 7.03948 17.0422 6.88472 17.0422 6.72637C17.0422 6.56802 17.0566 6.41326 17.0853 6.26211C17.1285 5.9526 17.2113 5.79785 17.3337 5.79785H18.0786Z" fill="#5B0888"/>
<path d="M12.5662 7.01788V0.302309C12.5662 0.151155 12.9296 0.0755776 13.6566 0.0755776C14.3908 0.0755776 14.7579 0.151155 14.7579 0.302309V5.59271H16.4206C16.5502 5.59271 16.6401 5.76186 16.6905 6.10016C16.7121 6.26571 16.7229 6.43486 16.7229 6.6076C16.7229 6.78035 16.7121 6.9567 16.6905 7.13665C16.6329 7.48214 16.5394 7.65489 16.4098 7.65489H13.0844C12.926 7.65489 12.8001 7.59011 12.7065 7.46055C12.6129 7.33099 12.5662 7.18343 12.5662 7.01788Z" fill="#5B0888"/>
<path d="M9.42511 0.313107C9.42511 0.169151 9.81379 0.0971723 10.5912 0.0971723C11.3757 0.0971723 11.768 0.169151 11.768 0.313107V5.26881C11.768 6.00299 11.5053 6.60401 10.9798 7.07187C10.4544 7.53253 9.72742 7.76286 8.7989 7.76286C7.87758 7.76286 7.12541 7.52533 6.54238 7.05027C5.96656 6.56802 5.67864 5.92021 5.67864 5.10686V0.323904C5.67864 0.179947 6.06733 0.107969 6.84469 0.107969C7.62925 0.107969 8.02153 0.179947 8.02153 0.323904V5.19323C8.02153 5.33719 8.09711 5.45236 8.24827 5.53873C8.40662 5.6251 8.57217 5.66829 8.74492 5.66829C8.91766 5.66829 9.07242 5.6287 9.20918 5.54953C9.35313 5.47035 9.42511 5.35159 9.42511 5.19323V0.313107Z" fill="#5B0888"/>
<path d="M3.72487 7.48214C3.72487 7.6261 3.36858 7.69808 2.656 7.69808C1.94341 7.69808 1.58712 7.6261 1.58712 7.48214V2.06218H0.291512C0.169149 2.06218 0.082775 1.89663 0.0323902 1.56553C0.0107967 1.40718 0 1.24523 0 1.07968C0 0.914126 0.0107967 0.752174 0.0323902 0.593822C0.082775 0.262722 0.169149 0.0971723 0.291512 0.0971723H4.98809C5.11046 0.0971723 5.19683 0.262722 5.24722 0.593822C5.26881 0.752174 5.27961 0.914126 5.27961 1.07968C5.27961 1.24523 5.26881 1.40718 5.24722 1.56553C5.19683 1.89663 5.11046 2.06218 4.98809 2.06218H3.72487V7.48214Z" fill="#5B0888"/>
</svg>
