<svg width="31" height="9" viewBox="0 0 31 9" fill="none" xmlns="http://www.w3.org/2000/svg">
<path d="M3.46351 0.119431V8.85498H2.14123V1.44171H2.09005L0 2.80664V1.54408L2.17962 0.119431H3.46351Z" fill="black"/>
<path d="M5.82654 8.85498V7.89953L8.78246 4.83697C9.0981 4.50427 9.35829 4.2128 9.56303 3.96256C9.77062 3.70948 9.92559 3.46919 10.028 3.24171C10.1303 3.01422 10.1815 2.77251 10.1815 2.51659C10.1815 2.22654 10.1133 1.9763 9.97678 1.76588C9.84028 1.55261 9.65403 1.3891 9.41801 1.27536C9.18199 1.15877 8.91611 1.10047 8.62038 1.10047C8.30758 1.10047 8.0346 1.16445 7.80142 1.29242C7.56825 1.42038 7.3891 1.60095 7.26398 1.83412C7.13886 2.0673 7.0763 2.34028 7.0763 2.65308H5.81801C5.81801 2.12133 5.94028 1.6564 6.18483 1.25829C6.42938 0.86019 6.76493 0.551658 7.19147 0.332701C7.61801 0.1109 8.10284 0 8.64597 0C9.19479 0 9.6782 0.109479 10.0962 0.328436C10.5171 0.54455 10.8455 0.840284 11.0815 1.21564C11.3175 1.58815 11.4355 2.009 11.4355 2.4782C11.4355 2.80237 11.3744 3.11943 11.2521 3.42938C11.1327 3.73934 10.9237 4.08483 10.6251 4.46588C10.3265 4.84408 9.91137 5.30332 9.37962 5.8436L7.6436 7.66066V7.72464H11.5763V8.85498H5.82654Z" fill="black"/>
<path d="M14.0502 7.77156C13.8171 7.77156 13.6166 7.6891 13.4488 7.52417C13.281 7.3564 13.1972 7.1545 13.1972 6.91848C13.1972 6.68531 13.281 6.48626 13.4488 6.32133C13.6166 6.15355 13.8171 6.06967 14.0502 6.06967C14.2834 6.06967 14.4839 6.15355 14.6517 6.32133C14.8194 6.48626 14.9033 6.68531 14.9033 6.91848C14.9033 7.07488 14.8635 7.21848 14.7839 7.34929C14.7071 7.47725 14.6047 7.57962 14.4768 7.6564C14.3488 7.73317 14.2066 7.77156 14.0502 7.77156ZM14.0502 3.39526C13.8171 3.39526 13.6166 3.3128 13.4488 3.14787C13.281 2.98009 13.1972 2.7782 13.1972 2.54218C13.1972 2.309 13.281 2.10995 13.4488 1.94502C13.6166 1.77725 13.8171 1.69336 14.0502 1.69336C14.2834 1.69336 14.4839 1.77725 14.6517 1.94502C14.8194 2.10995 14.9033 2.309 14.9033 2.54218C14.9033 2.69858 14.8635 2.84218 14.7839 2.97299C14.7071 3.10095 14.6047 3.20332 14.4768 3.28009C14.3488 3.35687 14.2066 3.39526 14.0502 3.39526Z" fill="black"/>
<path d="M19.6358 8.97441C19.05 8.97441 18.5268 8.87346 18.0661 8.67156C17.6083 8.46967 17.2457 8.18957 16.9784 7.83128C16.714 7.47014 16.5718 7.05213 16.5519 6.57725H17.8912C17.9083 6.83602 17.995 7.06066 18.1514 7.25118C18.3107 7.43886 18.5182 7.58389 18.7742 7.68626C19.0301 7.78862 19.3145 7.83981 19.6273 7.83981C19.9713 7.83981 20.2756 7.78009 20.54 7.66066C20.8073 7.54123 21.0164 7.37488 21.1671 7.16161C21.3178 6.9455 21.3931 6.69668 21.3931 6.41517C21.3931 6.12227 21.3178 5.86493 21.1671 5.64313C21.0192 5.41848 20.8017 5.24218 20.5145 5.11422C20.2301 4.98626 19.886 4.92227 19.4822 4.92227H18.7443V3.84739H19.4822C19.8064 3.84739 20.0908 3.7891 20.3353 3.67251C20.5827 3.55592 20.7761 3.39384 20.9154 3.18626C21.0547 2.97583 21.1244 2.72986 21.1244 2.44834C21.1244 2.1782 21.0633 1.9436 20.941 1.74455C20.8216 1.54265 20.6509 1.38483 20.4291 1.27109C20.2102 1.15735 19.9514 1.10047 19.6528 1.10047C19.3685 1.10047 19.1026 1.15308 18.8552 1.25829C18.6107 1.36066 18.4116 1.50853 18.2581 1.7019C18.1045 1.89242 18.022 2.12133 18.0107 2.38862H16.7353C16.7495 1.91659 16.8889 1.50142 17.1533 1.14313C17.4206 0.784834 17.7732 0.504739 18.2111 0.302843C18.6491 0.100948 19.1353 0 19.6699 0C20.2301 0 20.7135 0.109479 21.1201 0.328436C21.5296 0.54455 21.8453 0.833175 22.0671 1.19431C22.2917 1.55545 22.4026 1.95071 22.3998 2.38009C22.4026 2.86919 22.2661 3.28436 21.9903 3.62559C21.7173 3.96682 21.3533 4.19573 20.8983 4.31232V4.38057C21.4784 4.46872 21.9277 4.69905 22.2462 5.07156C22.5675 5.44407 22.7268 5.90616 22.7239 6.45782C22.7268 6.93839 22.5931 7.36919 22.323 7.75024C22.0557 8.13128 21.6903 8.43128 21.2268 8.65024C20.7633 8.86635 20.2329 8.97441 19.6358 8.97441Z" fill="black"/>
<path d="M27.3775 9C26.7036 8.99716 26.1277 8.81943 25.65 8.46682C25.1723 8.11422 24.8069 7.60095 24.5538 6.92701C24.3007 6.25308 24.1742 5.44123 24.1742 4.49147C24.1742 3.54455 24.3007 2.73555 24.5538 2.06445C24.8097 1.39336 25.1765 0.881516 25.6543 0.52891C26.1348 0.176303 26.7092 0 27.3775 0C28.0457 0 28.6187 0.177725 29.0964 0.533175C29.5742 0.885782 29.9396 1.39763 30.1927 2.06872C30.4486 2.73697 30.5765 3.54455 30.5765 4.49147C30.5765 5.44408 30.45 6.25735 30.1969 6.93128C29.9438 7.60237 29.5784 8.11564 29.1007 8.47109C28.623 8.8237 28.0486 9 27.3775 9ZM27.3775 7.86114C27.969 7.86114 28.431 7.57251 28.7637 6.99526C29.0993 6.41801 29.2671 5.58341 29.2671 4.49147C29.2671 3.76635 29.1903 3.15355 29.0367 2.65308C28.886 2.14976 28.6685 1.76872 28.3841 1.50995C28.1026 1.24834 27.7671 1.11754 27.3775 1.11754C26.7889 1.11754 26.3268 1.40758 25.9912 1.98768C25.6557 2.56777 25.4865 3.40237 25.4836 4.49147C25.4836 5.21943 25.559 5.83507 25.7097 6.33839C25.8633 6.83886 26.0808 7.21848 26.3623 7.47725C26.6438 7.73317 26.9822 7.86114 27.3775 7.86114Z" fill="black"/>
</svg>
