<svg width="48" height="32" viewBox="0 0 48 32" fill="none" xmlns="http://www.w3.org/2000/svg">
<path d="M23.9999 1.6C22.7577 1.60221 21.5431 1.96737 20.5056 2.65057C19.468 3.33378 18.6527 4.30527 18.1599 5.44561C20.717 7.69023 22.7164 10.4993 23.9999 13.6504C25.2846 10.4989 27.2854 7.68979 29.8439 5.44561C29.3508 4.30465 28.5349 3.33273 27.4966 2.64948C26.4583 1.96622 25.2429 1.60143 23.9999 1.6Z" fill="#5B0888"/>
<path d="M36.8 8.80001C36.8024 6.60839 37.3067 4.44643 38.2744 2.48C35.0804 3.51537 32.1838 5.30723 29.8313 7.70303C27.4788 10.0988 25.7401 13.0276 24.7632 16.24C24.7122 16.4025 24.6106 16.5444 24.4733 16.6451C24.3361 16.7459 24.1703 16.8002 24 16.8002C23.8297 16.8002 23.6639 16.7459 23.5266 16.6451C23.3894 16.5444 23.2878 16.4025 23.2368 16.24C22.2598 13.0277 20.521 10.099 18.1685 7.70317C15.8161 5.30739 12.9196 3.51549 9.72557 2.48C10.6931 4.44647 11.1975 6.6084 11.2 8.80001V14.4C11.2 17.7948 12.5485 21.0505 14.949 23.451C17.3495 25.8515 20.6052 27.2 24 27.2C27.3948 27.2 30.6505 25.8515 33.051 23.451C35.4514 21.0505 36.8 17.7948 36.8 14.4V8.80001Z" fill="#5B0888"/>
</svg>
