<svg width="48" height="40" viewBox="0 0 48 40" fill="none" xmlns="http://www.w3.org/2000/svg">
<g opacity="0.3">
<path d="M23.7512 1.58342C22.5218 1.5856 21.3198 1.94697 20.293 2.6231C19.2662 3.29923 18.4594 4.26064 17.9717 5.38916C20.5023 7.61051 22.481 10.3905 23.7512 13.5089C25.0225 10.3901 27.0026 7.61008 29.5346 5.38916C29.0466 4.26002 28.2392 3.29819 27.2116 2.62201C26.184 1.94584 24.9812 1.58483 23.7512 1.58342Z" fill="#5B0888"/>
<path d="M36.4186 8.7088C36.4209 6.53989 36.92 4.40034 37.8777 2.4543C34.7167 3.47893 31.8502 5.25222 29.5221 7.62318C27.194 9.99415 25.4733 12.8926 24.5065 16.0717C24.456 16.2324 24.3555 16.3729 24.2197 16.4726C24.0838 16.5723 23.9197 16.626 23.7512 16.626C23.5827 16.626 23.4186 16.5723 23.2828 16.4726C23.1469 16.3729 23.0464 16.2324 22.9959 16.0717C22.029 12.8926 20.3083 9.99427 17.9802 7.62332C15.6521 5.25238 12.7856 3.47905 9.62476 2.4543C10.5823 4.40038 11.0814 6.5399 11.0839 8.7088V14.2508C11.0839 17.6103 12.4185 20.8323 14.7941 23.2079C17.1696 25.5835 20.3916 26.9181 23.7512 26.9181C27.1108 26.9181 30.3328 25.5835 32.7084 23.2079C35.084 20.8323 36.4186 17.6103 36.4186 14.2508V8.7088Z" fill="#5B0888"/>
<path d="M35.5989 37.2978C35.7337 37.4042 35.9642 37.5496 36.2904 37.734C36.6237 37.9184 36.9394 38.0106 37.2372 38.0106C37.5422 38.0106 37.6947 37.8936 37.6947 37.6595C37.6947 37.5531 37.6521 37.4609 37.567 37.3829C37.4819 37.2978 37.3259 37.2021 37.0989 37.0957C36.872 36.9893 36.7018 36.9077 36.5883 36.851C36.4748 36.7871 36.3223 36.6879 36.1308 36.5531C35.9464 36.4113 35.8046 36.2659 35.7053 36.1169C35.4216 35.7127 35.2797 35.1985 35.2797 34.5743C35.2797 33.9502 35.5102 33.4254 35.9712 32.9998C36.4393 32.5672 37.0493 32.3509 37.8011 32.3509C38.3117 32.3509 38.7834 32.4076 39.216 32.5211C39.6487 32.6275 39.8721 32.7693 39.8862 32.9466C39.8862 32.9679 39.8862 32.9892 39.8862 33.0105C39.8862 33.2587 39.8082 33.5743 39.6522 33.9573C39.4962 34.3332 39.3862 34.5424 39.3224 34.585C38.8685 34.3509 38.4607 34.2339 38.099 34.2339C37.7443 34.2339 37.567 34.3616 37.567 34.6169C37.567 34.7729 37.6982 34.9112 37.9607 35.0318C38.0174 35.0602 38.099 35.0992 38.2054 35.1488C38.3117 35.1985 38.4323 35.2587 38.5671 35.3297C38.7089 35.3935 38.8579 35.4786 39.0139 35.585C39.177 35.6843 39.3508 35.819 39.5352 35.9893C39.9111 36.3439 40.099 36.812 40.099 37.3935C40.099 38.1524 39.8898 38.773 39.4713 39.2553C39.0529 39.7376 38.4075 39.9858 37.5351 40C37.1096 40 36.723 39.9645 36.3755 39.8936C36.0351 39.8227 35.7372 39.6844 35.4819 39.4787C35.2265 39.273 35.0989 39.0248 35.0989 38.734C35.0989 38.4432 35.1521 38.156 35.2585 37.8723C35.3648 37.5815 35.4783 37.39 35.5989 37.2978Z" fill="#5B0888"/>
<path d="M30.1805 39.9149C29.5351 39.9149 29.2124 39.844 29.2124 39.7021V32.8083C29.2124 32.5672 29.3223 32.4466 29.5422 32.4466H31.4146C32.4643 32.4466 33.2196 32.6629 33.6806 33.0956C34.1487 33.5282 34.3828 34.1559 34.3828 34.9786C34.3828 35.6595 34.1629 36.2836 33.7232 36.851C33.5033 37.1347 33.1806 37.3616 32.7551 37.5319C32.3295 37.7021 31.833 37.7872 31.2657 37.7872V39.6915C31.2657 39.7766 31.1309 39.8369 30.8614 39.8723C30.599 39.9007 30.372 39.9149 30.1805 39.9149ZM31.2657 34.2977V35.9786H31.404C31.6522 35.9786 31.8614 35.9006 32.0316 35.7446C32.2019 35.5885 32.287 35.3687 32.287 35.085C32.287 34.8013 32.2267 34.5991 32.1061 34.4786C31.9926 34.358 31.7869 34.2977 31.4891 34.2977H31.2657Z" fill="#5B0888"/>
<path d="M25.3963 38.0638V34.2764H24.641C24.5204 34.2764 24.4353 34.124 24.3857 33.819C24.3644 33.67 24.3538 33.5176 24.3538 33.3615C24.3538 33.2055 24.3644 33.053 24.3857 32.9041C24.4353 32.5991 24.5204 32.4466 24.641 32.4466H28.2156C28.3361 32.4466 28.4177 32.5991 28.4603 32.9041C28.4886 33.053 28.5028 33.2055 28.5028 33.3615C28.5028 33.5176 28.4886 33.67 28.4603 33.819C28.4177 34.124 28.3361 34.2764 28.2156 34.2764H27.5028V38.0638H28.2475C28.3681 38.0638 28.4532 38.2163 28.5028 38.5212C28.5312 38.6702 28.5454 38.8227 28.5454 38.9787C28.5454 39.1347 28.5312 39.2872 28.5028 39.4362C28.4532 39.7411 28.3681 39.8936 28.2475 39.8936H24.6623C24.5417 39.8936 24.4602 39.7411 24.4176 39.4362C24.3892 39.2872 24.375 39.1347 24.375 38.9787C24.375 38.8227 24.3892 38.6702 24.4176 38.5212C24.4602 38.2163 24.5417 38.0638 24.6623 38.0638H25.3963Z" fill="#5B0888"/>
<path d="M19.9646 39.2659V32.6487C19.9646 32.4998 20.3228 32.4253 21.0391 32.4253C21.7625 32.4253 22.1242 32.4998 22.1242 32.6487V37.8616H23.7626C23.8902 37.8616 23.9789 38.0283 24.0285 38.3617C24.0498 38.5248 24.0605 38.6915 24.0605 38.8617C24.0605 39.0319 24.0498 39.2057 24.0285 39.383C23.9718 39.7234 23.8796 39.8936 23.7519 39.8936H20.4753C20.3192 39.8936 20.1951 39.8298 20.1029 39.7021C20.0107 39.5745 19.9646 39.4291 19.9646 39.2659Z" fill="#5B0888"/>
<path d="M16.8696 32.6594C16.8696 32.5175 17.2526 32.4466 18.0185 32.4466C18.7916 32.4466 19.1781 32.5175 19.1781 32.6594V37.5425C19.1781 38.2659 18.9193 38.8581 18.4015 39.3191C17.8838 39.773 17.1675 40 16.2525 40C15.3447 40 14.6036 39.766 14.0291 39.2979C13.4617 38.8227 13.178 38.1844 13.178 37.3829V32.67C13.178 32.5282 13.561 32.4572 14.3269 32.4572C15.1 32.4572 15.4866 32.5282 15.4866 32.67V37.468C15.4866 37.6099 15.561 37.7233 15.71 37.8085C15.866 37.8936 16.0291 37.9361 16.1993 37.9361C16.3696 37.9361 16.522 37.8971 16.6568 37.8191C16.7986 37.7411 16.8696 37.6241 16.8696 37.468V32.6594Z" fill="#5B0888"/>
<path d="M11.2528 39.7234C11.2528 39.8652 10.9018 39.9362 10.1996 39.9362C9.49747 39.9362 9.14639 39.8652 9.14639 39.7234V34.3828H7.86976C7.74919 34.3828 7.66408 34.2197 7.61444 33.8935C7.59316 33.7374 7.58252 33.5778 7.58252 33.4147C7.58252 33.2516 7.59316 33.092 7.61444 32.936C7.66408 32.6097 7.74919 32.4466 7.86976 32.4466H12.4975C12.6181 32.4466 12.7032 32.6097 12.7529 32.936C12.7742 33.092 12.7848 33.2516 12.7848 33.4147C12.7848 33.5778 12.7742 33.7374 12.7529 33.8935C12.7032 34.2197 12.6181 34.3828 12.4975 34.3828H11.2528V39.7234Z" fill="#5B0888"/>
</g>
</svg>
