<svg width="360" height="328" viewBox="0 0 360 328" fill="none" xmlns="http://www.w3.org/2000/svg">
<g clip-path="url(#clip0_137_168)">
<path d="M0.949607 137.804C0.949607 137.804 -1.2441 14.2362 94.9523 3.03509C191.149 -8.16603 288.683 14.6191 307.571 23.1123C326.459 31.6055 352.814 44.352 358.524 118.493C364.234 192.633 352.379 260.209 340.072 275.664C327.765 291.119 310.2 320.851 239.473 318.909C168.745 316.967 131.934 324.038 69.468 306.942C0.34284 288.014 -2.56655 196.107 0.949607 137.804Z" fill="#F5E9FF"/>
<path d="M216.252 255.287C233.427 224.827 253.685 191.884 271.484 161.791C254.48 193.756 235.446 224.607 216.252 255.287Z" fill="#547A51"/>
<path d="M222.21 245.44C238.577 222.736 259.459 194.832 276.267 172.25C282.224 164.091 288.512 156.152 293.968 147.638C283.533 164.96 270.958 180.911 259.129 197.291C247.006 213.475 234.81 229.611 222.21 245.428V245.44Z" fill="#547A51"/>
<path d="M223.176 251.018C237.917 212.582 252.939 174.195 269.93 136.677C254.982 173.547 238.908 214.478 223.176 251.018Z" fill="#547A51"/>
<path d="M235.226 245.44C232.962 229.219 231.311 212.937 229.916 196.618C228.938 182.343 227.653 167.993 228.485 153.669C228.644 151.638 228.815 149.546 229.598 147.638C229.244 148.604 229.097 149.607 228.999 150.623C228.253 165.926 230.075 181.254 231.14 196.508C232.253 210.723 234.063 231.017 235.226 245.428V245.44Z" fill="#547A51"/>
<path d="M231.152 245.44C234.81 206.515 238.688 167.504 245.783 129.031C246.345 126.487 246.835 123.906 247.838 121.484C247.373 122.707 247.079 123.979 246.822 125.251C243.348 144.482 241.379 163.969 238.908 183.345C236.743 200.875 233.44 228.106 231.152 245.44Z" fill="#547A51"/>
<path d="M217.17 90.1797C217.17 90.1797 208.876 80.9805 211.861 76.7112C214.846 72.442 220.412 79.953 220.412 79.953C220.412 79.953 228.705 75.0353 228.828 79.1701C228.95 83.3048 224.938 88.3692 217.17 90.1797Z" fill="#5B0888"/>
<path d="M181.621 99.2932C181.621 99.2932 169.278 98.388 168.47 93.2379C167.663 88.0879 176.887 89.6659 176.887 89.6659C176.887 89.6659 179.468 80.3811 182.428 83.2803C185.389 86.1795 185.976 92.614 181.621 99.2932Z" fill="#5B0888"/>
<path d="M144.469 122.536C144.469 122.536 131.625 126.377 128.824 121.471C126.022 116.566 135.955 114.609 135.955 114.609C135.955 114.609 134.989 104.211 139.099 106.009C143.209 107.807 146.292 114.083 144.457 122.523L144.469 122.536Z" fill="#5B0888"/>
<path d="M126.218 183.052C126.218 183.052 118.756 188.777 115.698 186.257C112.64 183.737 118.67 179.982 118.67 179.982C118.67 179.982 115.441 173.413 118.585 173.559C121.729 173.706 125.313 177.058 126.218 183.052Z" fill="#5B0888"/>
<path d="M39.3856 46.0091C39.3856 46.0091 31.9235 51.7341 28.8653 49.2141C25.8071 46.6941 31.8379 42.9386 31.8379 42.9386C31.8379 42.9386 28.6084 36.3695 31.7523 36.5163C34.8961 36.6631 38.4804 40.015 39.3856 46.0091Z" fill="#5B0888"/>
<path d="M69.9679 267.425C69.9679 267.425 62.5058 273.15 59.4476 270.63C56.3893 268.11 62.4202 264.354 62.4202 264.354C62.4202 264.354 59.1907 257.785 62.3345 257.932C65.4784 258.079 69.0626 261.431 69.9679 267.425Z" fill="#5B0888"/>
<path d="M164.678 164.825C164.678 164.825 155.149 169.082 152.494 165.571C149.84 162.06 157.314 159.565 157.314 159.565C157.314 159.565 155.528 151.638 158.88 152.616C162.232 153.595 165.241 158.121 164.678 164.825Z" fill="#5B0888"/>
<path d="M170.293 215.004C170.293 215.004 156.568 221.133 152.739 216.093C148.922 211.053 159.687 207.432 159.687 207.432C159.687 207.432 157.106 196.007 161.95 197.413C166.795 198.82 171.113 205.353 170.293 215.004Z" fill="#5B0888"/>
<path d="M138.316 248.951C138.316 248.951 128.224 253.452 125.411 249.746C122.597 246.039 130.512 243.385 130.512 243.385C130.512 243.385 128.616 234.993 132.175 236.021C135.735 237.048 138.916 241.856 138.304 248.951H138.316Z" fill="#5B0888"/>
<path d="M196.263 133.741C196.263 133.741 184.544 132.762 183.823 127.857C183.101 122.952 191.847 124.542 191.847 124.542C191.847 124.542 194.392 115.734 197.181 118.523C199.97 121.312 200.472 127.429 196.263 133.729V133.741Z" fill="#5B0888"/>
<path d="M145.686 10.6856C145.686 10.6856 133.967 9.70691 133.245 4.80152C132.524 -0.103882 141.27 1.4864 141.27 1.4864C141.27 1.4864 143.815 -7.3213 146.604 -4.53219C149.393 -1.74309 149.894 4.37337 145.686 10.6733V10.6856Z" fill="#5B0888"/>
<path d="M266.199 88.5894C266.199 88.5894 261.074 77.9957 264.927 74.8885C268.78 71.7814 271.863 80.112 271.863 80.112C271.863 80.112 280.732 77.8244 279.753 81.6411C278.775 85.4578 273.759 89.0053 266.187 88.5894H266.199Z" fill="#5B0888"/>
<path d="M306.543 197.083C302.604 197.083 302.604 203.2 306.543 203.2C310.482 203.2 310.482 197.083 306.543 197.083Z" fill="#5B0888"/>
<path d="M318.972 198.221C315.828 198.221 315.816 203.114 318.972 203.114C322.128 203.114 322.128 198.221 318.972 198.221Z" fill="#5B0888"/>
<path d="M303.436 209.805C301.858 209.805 301.858 212.252 303.436 212.252C305.014 212.252 305.014 209.805 303.436 209.805Z" fill="#5B0888"/>
<path d="M298.776 202.099C295.632 202.099 295.619 206.992 298.776 206.992C301.932 206.992 301.932 202.099 298.776 202.099Z" fill="#5B0888"/>
<path d="M226.442 133.68C228.522 134.071 227.115 126.242 226.993 124.909C225.708 117.129 224.155 109.239 220.876 102.033C220.204 100.602 219.396 99.2321 218.234 98.1189C219.58 99.0119 220.534 100.394 221.402 101.74C225.341 108.774 227.103 116.847 227.923 124.799C228.008 126.242 228.754 134.279 226.442 133.668V133.68Z" fill="#547A51"/>
<path d="M207.726 116.007C211.262 111.884 217.489 111.407 221.611 114.943L224.546 117.46C221.009 121.583 214.782 122.06 210.66 118.523L207.726 116.007Z" fill="#547A51"/>
<path d="M228.295 117.455C227.88 112.039 231.946 107.299 237.362 106.884L241.216 106.589C241.631 112.004 237.565 116.745 232.149 117.16L228.295 117.455Z" fill="#547A51"/>
<path d="M219.452 98.8777C219.037 93.4621 223.103 88.7217 228.519 88.3069C228.934 93.7224 224.868 98.4629 219.452 98.8777Z" fill="#547A51"/>
<path d="M218.655 99.2753C215.118 103.398 208.891 103.875 204.769 100.339C208.305 96.2162 214.532 95.7392 218.655 99.2753Z" fill="#547A51"/>
<path d="M320.526 168.348C318.948 168.348 318.948 170.795 320.526 170.795C322.104 170.795 322.104 168.348 320.526 168.348Z" fill="#5B0888"/>
<path d="M267.166 94.4124C262.444 94.4124 262.432 101.752 267.166 101.752C271.9 101.752 271.9 94.4124 267.166 94.4124Z" fill="#5B0888"/>
<path d="M148.005 133.007C143.283 133.007 143.271 140.347 148.005 140.347C152.739 140.347 152.739 133.007 148.005 133.007Z" fill="#5B0888"/>
<path d="M45.0022 157.62C40.2803 157.62 40.2681 164.959 45.0022 164.959C49.7363 164.959 49.7363 157.62 45.0022 157.62Z" fill="#5B0888"/>
<path d="M271.667 114.095C271.667 114.095 267.423 123.025 272.438 122.511C276.059 122.132 274.934 116.505 275.178 114.107C275.264 113.239 275.655 112.309 276.463 111.967C276.817 111.808 277.221 111.783 277.625 111.771C278.75 111.722 279.888 111.661 281.001 111.844C281.662 111.954 282.347 112.162 282.787 112.664C283.692 113.716 283.13 115.318 282.799 116.481C282.212 118.536 281.221 119.93 279.374 121.019C278.811 121.349 278.236 121.655 277.784 122.132C276.548 123.429 277.356 125.019 278.652 125.863C279.937 126.707 281.344 126.707 282.249 125.362C283.252 123.881 282.799 122.193 283.472 120.652C283.668 120.199 283.998 119.808 284.377 119.514C285.124 118.927 286.432 118.426 287.301 118.939C288.243 119.49 288.72 120.835 289.014 121.826C290.91 128.383 286.763 139.613 277.441 142.463C268.12 145.314 258.97 136.029 258.358 127.723C257.746 119.416 268.23 112.077 271.655 114.107L271.667 114.095Z" fill="#5B0888"/>
<path d="M242.125 105.813C242.125 105.813 240.84 112.529 244.107 111.318C246.467 110.437 244.73 106.865 244.486 105.214C244.4 104.615 244.486 103.93 244.975 103.55C245.195 103.379 245.452 103.293 245.709 103.22C246.455 102.988 247.201 102.755 247.984 102.682C248.449 102.633 248.939 102.657 249.33 102.926C250.125 103.465 250.027 104.639 250.003 105.483C249.966 106.963 249.55 108.064 248.498 109.116C248.18 109.434 247.85 109.74 247.63 110.132C247.018 111.208 247.85 112.138 248.865 112.48C249.868 112.823 250.81 112.578 251.189 111.526C251.605 110.352 251.006 109.312 251.189 108.162C251.238 107.832 251.397 107.514 251.593 107.245C251.985 106.719 252.78 106.156 253.452 106.352C254.174 106.56 254.737 107.379 255.092 107.979C257.502 112.04 256.682 120.273 250.932 123.808C245.183 127.343 237.452 122.719 235.592 117.263C233.733 111.808 239.482 105.067 242.125 105.826V105.813Z" fill="#5B0888"/>
<path d="M224.289 130.928C224.289 130.928 223.531 137.509 226.173 136.457C228.094 135.686 226.491 132.077 226.21 130.438C226.112 129.839 226.161 129.166 226.54 128.823C226.711 128.664 226.932 128.591 227.14 128.53C227.751 128.334 228.363 128.138 228.999 128.102C229.378 128.077 229.794 128.126 230.124 128.395C230.797 128.97 230.773 130.12 230.797 130.952C230.834 132.408 230.54 133.484 229.708 134.475C229.464 134.781 229.195 135.062 229.036 135.442C228.583 136.481 229.305 137.435 230.161 137.815C231.005 138.194 231.776 137.998 232.045 136.971C232.339 135.833 231.788 134.769 231.898 133.643C231.923 133.313 232.033 133.007 232.192 132.75C232.498 132.249 233.134 131.735 233.696 131.955C234.308 132.188 234.81 133.019 235.128 133.643C237.305 137.766 236.999 145.864 232.387 149.106C227.776 152.347 221.17 147.43 219.384 141.949C217.598 136.469 222.063 130.071 224.289 130.94V130.928Z" fill="#5B0888"/>
<path d="M273.074 154.525C273.074 154.525 269.82 157.485 271.961 158.109C273.515 158.562 274.004 156.066 274.506 155.124C274.689 154.782 275.007 154.464 275.399 154.464C275.57 154.464 275.741 154.525 275.912 154.574C276.389 154.745 276.867 154.916 277.295 155.173C277.552 155.332 277.796 155.528 277.894 155.809C278.09 156.396 277.588 156.959 277.258 157.375C276.671 158.121 276.022 158.525 275.081 158.659C274.799 158.696 274.506 158.733 274.236 158.843C273.502 159.161 273.576 159.956 273.967 160.531C274.359 161.094 274.934 161.338 275.533 160.935C276.194 160.494 276.292 159.724 276.83 159.21C276.989 159.063 277.185 158.953 277.393 158.892C277.796 158.77 278.42 158.794 278.689 159.149C278.983 159.54 278.958 160.164 278.909 160.617C278.579 163.638 274.983 167.541 270.664 167.137C266.346 166.733 264.157 161.363 265.319 157.852C266.469 154.329 272.022 153.093 273.087 154.5L273.074 154.525Z" fill="#5B0888"/>
<path d="M304.525 137.827C304.525 137.827 310.238 138.255 308.293 141.228C306.348 144.2 304.452 142.891 303.008 142.769C301.565 142.647 298.629 142.671 299.767 145.191C300.904 147.711 305.883 143.589 308.268 144.91C310.654 146.231 313.149 148.665 308.635 151.002C304.121 153.338 293.687 154.023 292.659 148.947C291.632 143.87 296.084 135.943 304.513 137.827H304.525Z" fill="#5B0888"/>
<path d="M304.843 144.445C304.88 144.274 304.831 144.054 304.709 143.895C304.586 143.723 304.391 143.576 304.183 143.528C303.962 143.479 303.779 143.491 303.595 143.564C303.436 143.625 303.302 143.699 303.143 143.76C302.996 143.797 302.837 143.821 302.69 143.833C302.348 143.846 302.005 143.833 301.65 143.797C301.504 143.772 301.357 143.735 301.21 143.674C301.027 143.601 300.77 143.638 300.623 143.711C300.464 143.797 300.317 143.956 300.293 144.139C300.268 144.323 300.293 144.518 300.427 144.69C300.562 144.873 300.733 144.971 300.953 145.057C301.54 145.277 302.164 145.301 302.739 145.289C303.045 145.289 303.363 145.265 303.657 145.191C303.962 145.118 304.219 144.959 304.513 144.861C304.684 144.8 304.819 144.592 304.843 144.433V144.445Z" fill="#5B0888"/>
<path d="M223.898 237.024C233.904 229.929 244.902 222.442 254.847 215.371C263.801 208.998 272.927 202.772 281.16 195.481C282.285 194.392 283.46 193.315 284.255 191.958C283.558 193.389 282.457 194.563 281.38 195.713C273.588 203.554 264.45 209.891 255.544 216.375C245.195 223.567 234.712 230.577 223.898 237.036V237.024Z" fill="#547A51"/>
<path d="M228.95 248.816C230.589 233.488 232.767 218.234 235.103 203.004C237.513 188.777 239.617 174.403 243.556 160.494C243.862 159.577 244.253 158.684 244.596 157.791C244.315 158.708 243.984 159.614 243.727 160.543C240.559 174.623 238.602 188.948 236.302 203.187C234.161 216.57 231.213 235.617 228.938 248.804L228.95 248.816Z" fill="#547A51"/>
<path d="M269.356 205.609C274.494 203.846 280.104 206.59 281.867 211.727L283.122 215.383C277.984 217.146 272.374 214.403 270.611 209.265L269.356 205.609Z" fill="#547A51"/>
<path d="M270.518 204.797C265.639 202.411 263.612 196.504 265.998 191.625C270.877 194.011 272.904 199.918 270.518 204.797Z" fill="#547A51"/>
<path d="M299.583 168.727C304.794 163.149 312.684 155.357 318.152 149.864C323.559 144.286 331.841 136.946 336.587 130.94C331.768 138.365 325.125 144.408 319.009 150.733C312.721 156.935 306.286 162.99 299.571 168.727H299.583Z" fill="#547A51"/>
<path d="M315.603 121.862C320.966 122.715 324.634 127.77 323.78 133.134L322.072 143.874C316.708 143.021 313.04 137.966 313.894 132.602L315.603 121.862Z" fill="#547A51"/>
<path d="M343.835 151.575L333.924 156.052C328.975 158.288 323.132 156.081 320.896 151.132L330.807 146.655C335.757 144.419 341.599 146.625 343.835 151.575Z" fill="#547A51"/>
<path d="M328.83 123.659C331.826 124.135 333.878 126.964 333.402 129.96L332.444 135.977C329.448 135.5 327.396 132.671 327.873 129.675L328.83 123.659Z" fill="#547A51"/>
<path d="M342.617 136.068C341.724 138.068 339.377 138.976 337.366 138.079L333.356 136.289C334.248 134.289 336.596 133.381 338.606 134.279L342.617 136.068Z" fill="#547A51"/>
<path d="M342.947 126.268C343.468 127.627 342.791 129.144 341.431 129.664L336.085 131.711C335.564 130.352 336.241 128.835 337.601 128.315L342.947 126.268Z" fill="#547A51"/>
<path d="M192.79 239.14C192.79 239.14 192.741 239.274 192.655 239.531C192.569 239.788 192.435 240.155 192.251 240.644C192.08 240.803 191.86 242.883 191.615 242.43C191.371 242.687 191.077 243.421 190.759 244.816C190.441 244.681 190.086 245.623 189.707 247.739C189.523 248.155 189.315 248.901 189.12 249.599C189.071 249.746 189.022 249.99 188.961 250.272C188.924 250.883 188.753 251.629 188.594 252.266C175.456 269.33 175.456 306.69 149.473 309.944C177.083 306.69 175.468 269.33 188.459 251.47C175.468 269.343 177.083 306.702 149.473 309.944C155.969 308.317 162.464 311.571 168.336 311.852C168.593 311.913 169.07 312.011 169.327 311.999L173.009 311.901L174.098 311.877C183.59 309.944 191.713 309.944 201.732 311.167C202.185 311.167 202.698 311.143 203.163 311.143C209.536 310.983 215.592 310.824 220.253 310.702C220.436 310.702 220.693 310.641 221.928 309.968C232.326 300.194 222.577 277.453 216.081 266.089C211.212 259.593 211.212 251.47 212.069 243.348C212.105 242.736 212.154 242.137 212.228 241.574C212.301 241.011 212.387 240.461 212.485 239.935C212.901 237.855 213.622 236.179 214.699 235.042C225.488 223.579 192.79 239.176 192.79 239.176V239.14Z" fill="#5B0888"/>
<path d="M191.089 177.669C196.278 177.669 200.484 174.115 200.484 169.73C200.484 165.345 196.278 161.791 191.089 161.791C185.901 161.791 181.694 165.345 181.694 169.73C181.694 174.115 185.901 177.669 191.089 177.669Z" fill="#4C4757"/>
<path d="M207.714 160.702C200.166 157.473 187.04 164.201 182.428 174.978C177.829 185.755 178.991 192.704 187.162 193.523C196.019 194.404 202.588 190.905 207.188 180.14C211.787 169.363 215.261 163.932 207.701 160.702H207.714Z" fill="#393642"/>
<path d="M202.111 169.828C196.777 163.173 191.505 170.109 188.814 172.642C186.123 175.174 182.856 189.951 186.808 192.875C190.759 195.798 209.683 184.214 209.683 184.214C199.359 181.572 207.445 176.47 202.111 169.828Z" fill="#2A2830"/>
<path d="M198.136 176.434C198.777 176.434 199.298 176.177 199.298 175.859C199.298 175.541 198.777 175.284 198.136 175.284C197.494 175.284 196.973 175.541 196.973 175.859C196.973 176.177 197.494 176.434 198.136 176.434Z" fill="#E59B8F"/>
<path d="M241.513 221.377C241.477 221.231 241.428 221.084 241.33 220.974C241.232 220.864 241.073 220.815 240.902 220.778C239.813 220.497 238.675 220.215 237.574 220.387C236.094 220.619 234.907 221.573 233.525 222.063C233.195 222.197 230.455 223.09 230.932 222.148C231.874 220.264 231.017 218.625 229.207 218.539C227.678 218.478 223.592 225.989 222.332 228.35C223.616 225.671 227.898 215.261 223.616 202.637C218.625 187.92 202.209 190.587 202.209 190.587C202.209 190.587 201.45 184.532 201.573 183.981C201.573 183.945 201.585 183.933 201.609 183.945C202.808 182.452 203.555 180.177 203.555 177.62C203.555 177.388 203.555 177.18 203.518 176.972C203.322 172.776 201.059 169.485 198.319 169.485C197.866 169.485 197.426 169.583 196.998 169.767C194.735 169.669 193.193 171.296 191.101 174.954C187.737 180.801 193.083 182.501 193.083 182.501L193.585 192.496C183.957 191.297 179.749 199.811 179.749 199.811C174.844 212.631 188.263 235.494 192.471 238.1C193.719 238.883 195.432 238.956 196.863 239.079C199.102 239.225 201.34 239.176 203.591 239.079C206.405 238.944 209.194 238.724 211.995 238.491C213.316 238.393 214.625 238.308 215.922 238.198C217.243 238.088 218.564 238.186 219.885 237.99C220.889 237.831 221.463 237.378 222.21 236.742C223.152 235.959 224.13 235.213 225.231 234.675C226.32 234.136 227.543 233.818 228.754 233.88C228.791 233.88 228.84 233.892 228.864 233.892C230.467 233.99 232.216 234.406 233.807 234.247C235.042 234.112 236.216 233.794 237.281 233.158C238.235 232.571 239.018 231.775 239.752 230.944C240.4 230.21 241.379 229.415 241.55 228.411C241.685 227.8 241.452 227.164 241.403 226.528C241.354 225.72 241.599 224.925 241.66 224.118C241.721 223.212 241.672 222.283 241.501 221.39L241.513 221.377Z" fill="#D98370"/>
<path d="M194.784 175.467C194.784 175.467 195.579 176.654 196.411 176.654C197.243 176.654 198.429 175.908 198.429 175.908C198.429 175.908 198.148 174.452 196.484 174.415C195.652 174.391 194.796 175.48 194.796 175.48L194.784 175.467Z" fill="#CC7769"/>
<path d="M202.429 175.418C202.429 175.418 201.891 176.214 201.341 176.214C200.79 176.214 199.983 175.712 199.983 175.712C199.983 175.712 200.178 174.721 201.292 174.697C201.854 174.684 202.429 175.406 202.429 175.406V175.418Z" fill="#CC7769"/>
<path d="M193.083 182.489C193.083 182.489 197.805 185.095 198.661 185.131L193.132 183.541L193.095 182.489H193.083Z" fill="#CE7C6E"/>
<path d="M193.083 171.1C193.083 171.1 191.713 172.067 193.572 177.217C193.572 177.217 192.264 176.495 192.239 174.807C192.215 173.119 191.077 174.354 191.468 176.776C191.86 179.198 192.484 180.997 192.484 180.997L191.689 179.663C191.689 179.663 191.689 183.211 192.202 183.798C192.716 184.385 188.288 181.425 188.288 181.29C188.288 181.156 190.502 170.293 193.095 171.088L193.083 171.1Z" fill="#2A2830"/>
<path d="M200.851 176.189L200.937 176.238L200.839 176.36C200.839 176.36 200.778 176.201 200.851 176.189Z" fill="#B56A5D"/>
<path d="M195.236 170.085C195.236 170.085 194.319 170.024 193.952 173.18C193.585 176.336 193.634 180.312 194.6 182.954C195.567 185.596 196.215 187.37 196.215 187.37L193.352 182.159V185.486C193.352 185.486 189.23 179.553 189.365 179.26C189.499 178.966 190.441 171.431 190.918 171.32C191.395 171.21 195.236 170.097 195.236 170.097V170.085Z" fill="#2A2830"/>
<path d="M236.792 233.402C238.418 232.228 240.009 230.907 241.159 229.255C241.367 228.913 241.562 228.558 241.501 228.155C241.501 228.13 241.379 225.732 241.379 225.708C241.844 224.24 241.624 222.27 241.293 221.047C239.691 220.24 237.697 220.117 236.106 220.974C234.455 221.708 232.718 222.809 230.846 222.515C230.724 222.478 230.773 222.491 230.797 222.381C231.274 221.194 231.568 219.261 230.014 218.821C228.485 218.246 227.678 219.91 226.846 220.974C225.219 223.371 223.812 225.916 222.43 228.46C215.824 231.886 203.763 227.543 197.01 225.292C196.912 225.292 189.413 209.646 189.352 209.597C189.352 209.573 197.243 225.365 197.071 225.121C203.763 227.31 215.678 231.543 222.234 228.216C223.886 225.28 225.794 221.329 228.4 218.723C229.574 218.013 231.409 218.833 231.397 220.289C231.458 221.047 231.238 221.769 230.993 222.454L230.944 222.319C232.645 222.54 234.467 221.5 236.009 220.803C237.672 219.922 239.727 220.069 241.354 220.9C241.929 222.381 241.917 224.289 241.501 225.72L241.587 228.142C241.648 228.558 241.44 228.962 241.22 229.292C240.045 230.944 238.431 232.24 236.779 233.39L236.792 233.402Z" fill="#A86256"/>
<path d="M198.417 175.908C198.417 175.908 197.438 174.146 195.26 175.602C195.444 175.798 195.627 175.908 195.75 175.969C195.982 176.091 196.251 176.165 196.508 176.201C196.716 176.226 196.936 176.201 197.144 176.165C197.352 176.128 197.56 176.042 197.78 175.993C197.903 175.969 198.013 175.945 198.135 175.932C198.16 175.932 198.392 175.883 198.404 175.908H198.417Z" fill="url(#paint0_linear_137_168)"/>
<path d="M198.05 175.468C198.123 175.492 198.123 175.847 197.903 175.969L198.405 175.883C198.405 175.883 198.136 175.468 198.05 175.468Z" fill="#FF9A83"/>
<path d="M197.169 175.333C197.169 175.333 197.181 175.382 197.193 175.419C197.193 175.443 197.193 175.467 197.193 175.492C197.193 175.627 197.157 175.773 197.071 175.883C196.985 176.006 196.851 176.116 196.692 176.177H196.667H196.643C196.594 176.189 196.545 176.201 196.496 176.201H196.472C196.472 176.201 196.447 176.201 196.435 176.201C196.435 176.201 196.423 176.201 196.41 176.201C196.41 176.201 196.398 176.201 196.386 176.201C196.178 176.201 195.995 176.091 195.872 175.945C195.86 175.92 195.848 175.896 195.835 175.871C195.823 175.847 195.811 175.822 195.799 175.798C195.676 175.467 195.897 175.076 196.276 174.941C196.655 174.807 197.071 174.966 197.181 175.308L197.169 175.333Z" fill="#3D3C3C"/>
<path d="M197.181 175.406C197.181 175.406 197.181 175.455 197.181 175.48C197.181 175.614 197.145 175.761 197.059 175.871C196.973 175.994 196.839 176.104 196.68 176.165H196.667C196.667 176.165 196.643 176.165 196.643 176.177C196.594 176.189 196.545 176.202 196.496 176.202H196.472C196.472 176.202 196.447 176.202 196.435 176.202C196.435 176.202 196.423 176.202 196.411 176.202C196.411 176.202 196.398 176.202 196.386 176.202C196.178 176.202 195.995 176.091 195.872 175.945C195.86 175.92 195.848 175.896 195.836 175.871C195.799 175.627 196.031 175.345 196.386 175.223C196.741 175.101 197.096 175.174 197.218 175.394L197.181 175.406Z" fill="#383434"/>
<path d="M196.924 175.37C197.108 175.394 197.218 175.565 197.157 175.737C197.145 175.785 197.12 175.822 197.096 175.871C197.022 175.993 196.9 176.091 196.765 176.14H196.753C196.753 176.14 196.741 176.14 196.729 176.152C196.68 176.152 196.643 176.165 196.594 176.177C196.594 176.177 196.582 176.177 196.57 176.177H196.545C196.545 176.177 196.533 176.177 196.521 176.177C196.521 176.177 196.508 176.177 196.496 176.177C196.398 176.177 196.313 176.14 196.227 176.091C196.056 175.993 196.031 175.761 196.166 175.626C196.252 175.541 196.374 175.467 196.521 175.419C196.667 175.37 196.827 175.345 196.949 175.37H196.924Z" fill="#2D2728"/>
<path d="M197.071 175.834C197.071 175.834 197.071 175.859 197.071 175.883C196.985 176.006 196.851 176.116 196.692 176.177C196.618 176.201 196.545 176.214 196.472 176.226H196.447C196.447 176.226 196.423 176.226 196.41 176.226C196.41 176.226 196.398 176.226 196.386 176.226C196.386 176.226 196.374 176.226 196.361 176.226C196.288 176.226 196.227 176.189 196.215 176.14C196.178 176.042 196.349 175.896 196.582 175.81C196.814 175.724 197.034 175.737 197.071 175.847V175.834Z" fill="#1C0306"/>
<path d="M196.875 176.201C196.875 176.201 196.227 176.385 195.848 176.165C195.469 175.945 195.273 175.847 195.273 175.847L195.028 175.932L195.212 175.81C195.212 175.81 194.759 175.492 194.392 175.345C194.392 175.345 194.82 175.492 195.016 175.345C195.212 175.198 194.955 175.027 194.955 175.027C194.955 175.027 195.175 175.174 195.322 175.113C195.469 175.052 195.371 174.978 195.371 174.905C195.371 174.905 195.481 175.064 195.677 174.99C195.872 174.917 197.646 174.428 198.441 175.908C198.356 175.675 196.937 174.623 195.713 175.345L195.285 175.602C195.285 175.516 196.056 176.312 196.888 176.201H196.875Z" fill="#1C0306"/>
<path d="M196.937 175.235C197.059 175.345 197.144 175.626 196.937 175.688C196.937 175.59 196.961 175.553 196.985 175.467C196.985 175.394 196.973 175.321 196.937 175.247V175.235Z" fill="#878686"/>
<path d="M196.814 175.945C196.841 175.945 196.863 175.923 196.863 175.896C196.863 175.869 196.841 175.847 196.814 175.847C196.787 175.847 196.765 175.869 196.765 175.896C196.765 175.923 196.787 175.945 196.814 175.945Z" fill="#878686"/>
<path d="M200.093 175.736C200.093 175.736 200.839 174.391 202.49 175.504C202.344 175.651 202.209 175.736 202.111 175.785C201.928 175.883 201.732 175.932 201.524 175.957C201.365 175.981 201.194 175.957 201.047 175.932C200.9 175.908 200.729 175.834 200.558 175.798C200.472 175.773 200.374 175.761 200.289 175.749C200.264 175.749 200.093 175.712 200.081 175.736H200.093Z" fill="url(#paint1_linear_137_168)"/>
<path d="M200.386 175.406C200.386 175.406 200.337 175.7 200.496 175.785L200.117 175.724C200.117 175.724 200.325 175.406 200.386 175.406Z" fill="#FF9A83"/>
<path d="M201.059 175.296C201.059 175.296 201.047 175.333 201.047 175.357C201.047 175.382 201.047 175.394 201.047 175.419C201.047 175.529 201.072 175.626 201.133 175.724C201.194 175.822 201.304 175.896 201.426 175.945C201.426 175.945 201.439 175.945 201.451 175.945C201.463 175.945 201.463 175.945 201.475 175.945C201.512 175.945 201.549 175.957 201.585 175.969C201.585 175.969 201.598 175.969 201.61 175.969C201.61 175.969 201.622 175.969 201.634 175.969C201.634 175.969 201.647 175.969 201.659 175.969C201.659 175.969 201.659 175.969 201.671 175.969C201.83 175.969 201.977 175.883 202.062 175.773C202.062 175.761 202.087 175.737 202.099 175.724C202.099 175.7 202.124 175.688 202.124 175.663C202.209 175.406 202.05 175.113 201.757 175.015C201.463 174.917 201.157 175.039 201.059 175.296Z" fill="#3D3C3C"/>
<path d="M201.035 175.357C201.035 175.357 201.035 175.394 201.035 175.418C201.035 175.529 201.059 175.626 201.12 175.724C201.182 175.822 201.292 175.896 201.414 175.944C201.414 175.944 201.426 175.944 201.438 175.944C201.475 175.944 201.512 175.957 201.549 175.969C201.549 175.969 201.561 175.969 201.573 175.969C201.573 175.969 201.585 175.969 201.597 175.969C201.597 175.969 201.61 175.969 201.622 175.969C201.622 175.969 201.622 175.969 201.634 175.969C201.793 175.969 201.94 175.883 202.026 175.773C202.026 175.761 202.05 175.736 202.062 175.724C202.087 175.541 201.915 175.321 201.646 175.235C201.377 175.149 201.108 175.198 201.01 175.357H201.035Z" fill="#383434"/>
<path d="M201.23 175.333C201.096 175.345 201.01 175.492 201.047 175.614C201.047 175.651 201.071 175.687 201.096 175.712C201.157 175.81 201.243 175.883 201.353 175.92C201.353 175.92 201.365 175.92 201.377 175.92C201.414 175.92 201.438 175.932 201.475 175.932C201.475 175.932 201.487 175.932 201.499 175.932C201.499 175.932 201.512 175.932 201.524 175.932C201.524 175.932 201.524 175.932 201.536 175.932C201.536 175.932 201.536 175.932 201.548 175.932C201.622 175.932 201.683 175.908 201.744 175.871C201.879 175.798 201.891 175.626 201.793 175.516C201.732 175.455 201.634 175.394 201.524 175.357C201.414 175.321 201.292 175.308 201.194 175.321L201.23 175.333Z" fill="#2D2728"/>
<path d="M201.12 175.688C201.12 175.688 201.12 175.712 201.12 175.724C201.182 175.822 201.292 175.895 201.414 175.944C201.475 175.969 201.524 175.981 201.573 175.981C201.573 175.981 201.585 175.981 201.597 175.981C201.597 175.981 201.61 175.981 201.622 175.981C201.622 175.981 201.634 175.981 201.646 175.981C201.646 175.981 201.646 175.981 201.659 175.981C201.72 175.981 201.756 175.957 201.769 175.92C201.793 175.847 201.671 175.724 201.487 175.663C201.304 175.602 201.133 175.614 201.108 175.688H201.12Z" fill="#1C0306"/>
<path d="M201.28 175.969C201.28 175.969 201.769 176.116 202.063 175.944C202.356 175.773 202.503 175.7 202.503 175.7L202.686 175.761L202.552 175.675C202.552 175.675 202.894 175.431 203.176 175.321C203.176 175.321 202.858 175.431 202.699 175.321C202.54 175.211 202.748 175.076 202.748 175.076C202.748 175.076 202.576 175.186 202.466 175.149C202.356 175.113 202.429 175.051 202.429 174.99C202.429 174.99 202.344 175.113 202.197 175.051C202.05 174.99 200.692 174.623 200.093 175.749C200.166 175.565 201.243 174.77 202.173 175.321L202.491 175.516C202.491 175.516 201.916 176.116 201.267 175.981L201.28 175.969Z" fill="#1C0306"/>
<path d="M201.218 175.223C201.132 175.308 201.059 175.516 201.218 175.565C201.218 175.492 201.194 175.455 201.181 175.406C201.181 175.357 201.181 175.296 201.218 175.235V175.223Z" fill="#878686"/>
<path d="M201.316 175.773C201.336 175.773 201.353 175.757 201.353 175.736C201.353 175.716 201.336 175.7 201.316 175.7C201.296 175.7 201.279 175.716 201.279 175.736C201.279 175.757 201.296 175.773 201.316 175.773Z" fill="#878686"/>
<path d="M198.625 174.856C198.625 174.856 198.551 174.746 198.404 174.746C198.258 174.746 197.854 174.611 197.45 174.293C197.047 173.975 194.759 173.95 194.417 174.122C194.074 174.293 194.845 173.608 196.252 173.706C197.658 173.804 197.842 173.779 198.135 174.183C198.135 174.183 198.233 174.073 197.989 173.853C197.989 173.853 198.453 174.256 198.502 174.623C198.502 174.623 198.612 174.489 198.527 174.281C198.527 174.281 198.735 174.648 198.625 174.868V174.856Z" fill="#1C0706"/>
<path d="M199.811 174.77C199.811 174.77 199.86 174.684 199.97 174.684C200.081 174.684 200.374 174.587 200.668 174.354C200.961 174.122 202.649 174.097 202.894 174.232C203.139 174.366 202.576 173.853 201.549 173.926C200.521 173.999 200.386 173.975 200.166 174.269C200.166 174.269 200.093 174.183 200.276 174.024C200.276 174.024 199.934 174.317 199.897 174.599C199.897 174.599 199.811 174.501 199.885 174.342C199.885 174.342 199.726 174.611 199.811 174.77Z" fill="#1C0706"/>
<path d="M171.26 167.589C171.382 167.418 171.749 167.369 171.896 167.589C171.663 167.54 171.48 167.553 171.26 167.589Z" fill="#D8796F"/>
<path d="M201.585 180.165C201.071 179.7 200.386 179.639 199.469 180.104C198.563 179.896 197.891 180.104 197.438 180.679C197.438 180.679 198.466 181.351 199.615 181.205C200.765 181.058 201.597 180.153 201.597 180.153L201.585 180.165Z" fill="#CE3521"/>
<path d="M186.282 193.658C186.282 193.658 192.998 199.065 193.267 204.3" stroke="#450470" stroke-miterlimit="10" stroke-linecap="round"/>
<path d="M207.702 190.294C207.702 190.294 214.418 195.701 214.687 200.936" stroke="#450470" stroke-miterlimit="10" stroke-linecap="round"/>
<path d="M203.151 204.728C203.151 204.728 189.132 199.395 189.181 209.585L197.047 225.194C197.047 225.194 208.986 228.729 210.98 229.023C212.974 229.317 216.778 229.366 216.778 229.366C216.778 229.366 225.562 215.334 220.399 202.123C219.555 199.958 217.561 198.441 215.237 198.245C211.641 197.939 206.246 198.661 203.139 204.728H203.151Z" fill="#5B0888"/>
<path d="M290.8 161.681C290.8 161.681 300.672 156.666 300.17 164.115C299.669 171.565 295.326 171.1 292.818 172.336C290.31 173.571 285.466 176.617 289.638 180.104C293.809 183.59 298.323 170.941 303.51 170.941C308.696 170.941 315.045 172.911 309.687 181.804C304.342 190.697 287.631 202.588 281.282 194.257C274.934 185.927 275.08 166.782 290.8 161.681Z" fill="#5B0888"/>
<path d="M297.369 173.584C297.271 173.241 296.989 172.874 296.647 172.715C296.28 172.532 295.84 172.446 295.436 172.568C295.02 172.691 294.751 172.911 294.494 173.241C294.286 173.498 294.127 173.779 293.931 174.049C293.723 174.269 293.491 174.477 293.246 174.66C292.696 175.039 292.121 175.382 291.497 175.651C291.228 175.749 290.946 175.835 290.653 175.884C290.286 175.945 289.894 176.263 289.711 176.556C289.515 176.874 289.43 177.327 289.552 177.682C289.674 178.037 289.907 178.379 290.274 178.55C290.665 178.746 291.044 178.77 291.485 178.697C292.647 178.514 293.711 177.914 294.665 177.303C295.167 176.972 295.693 176.63 296.096 176.202C296.537 175.737 296.83 175.211 297.21 174.721C297.43 174.428 297.467 173.926 297.369 173.596V173.584Z" fill="#5B0888"/>
<path d="M245.782 137.069C245.782 137.069 253.428 132.86 253.049 139.111C252.67 145.362 249.293 144.971 247.348 146.011C245.403 147.051 241.648 149.595 244.89 152.531C248.131 155.467 251.63 144.849 255.642 144.849C259.655 144.849 264.584 146.5 260.438 153.962C256.291 161.424 243.336 171.406 238.418 164.409C233.501 157.412 233.611 141.35 245.795 137.081L245.782 137.069Z" fill="#5B0888"/>
<path d="M250.871 147.051C250.798 146.769 250.578 146.463 250.309 146.317C250.027 146.17 249.685 146.096 249.367 146.194C249.049 146.292 248.828 146.488 248.633 146.757C248.474 146.977 248.339 147.21 248.192 147.442C248.033 147.626 247.85 147.797 247.654 147.956C247.226 148.274 246.773 148.555 246.296 148.788C246.088 148.873 245.868 148.947 245.648 148.983C245.366 149.032 245.061 149.301 244.914 149.546C244.755 149.803 244.694 150.194 244.792 150.488C244.889 150.782 245.073 151.075 245.354 151.222C245.66 151.381 245.954 151.406 246.296 151.344C247.201 151.185 248.021 150.684 248.767 150.17C249.159 149.901 249.562 149.607 249.88 149.24C250.223 148.849 250.443 148.408 250.749 147.993C250.92 147.748 250.945 147.332 250.871 147.051Z" fill="#5B0888"/>
</g>
<defs>
<linearGradient id="paint0_linear_137_168" x1="197.136" y1="175.088" x2="196.742" y2="175.926" gradientUnits="userSpaceOnUse">
<stop stop-color="#FED0AF"/>
<stop offset="1" stop-color="#FFEBDB"/>
</linearGradient>
<linearGradient id="paint1_linear_137_168" x1="201.068" y1="175.061" x2="201.364" y2="175.696" gradientUnits="userSpaceOnUse">
<stop stop-color="#FED0AF"/>
<stop offset="1" stop-color="#FFEBDB"/>
</linearGradient>
<clipPath id="clip0_137_168">
<rect width="360" height="328" fill="white"/>
</clipPath>
</defs>
</svg>
