<svg width="24" height="24" viewBox="0 0 24 24" fill="none" xmlns="http://www.w3.org/2000/svg">
<mask id="mask0_121_160" style="mask-type:alpha" maskUnits="userSpaceOnUse" x="0" y="0" width="24" height="24">
<rect width="24" height="24" fill="#3F3F3F"/>
</mask>
<g mask="url(#mask0_121_160)">
</g>
<path d="M10.51 3.66489C10.6976 3.45539 10.9272 3.2878 11.184 3.17306C11.4407 3.05833 11.7188 2.99902 12 2.99902C12.2812 2.99902 12.5592 3.05833 12.816 3.17306C13.0727 3.2878 13.3024 3.45539 13.49 3.66489L14.19 4.44689C14.39 4.67039 14.6378 4.84602 14.9149 4.96079C15.1921 5.07556 15.4915 5.12652 15.791 5.10989L16.841 5.05189C17.1218 5.03641 17.4028 5.08034 17.6655 5.18082C17.9282 5.28129 18.1668 5.43605 18.3656 5.63498C18.5644 5.83392 18.7191 6.07256 18.8194 6.33532C18.9198 6.59808 18.9636 6.87906 18.948 7.15989L18.89 8.20889C18.8735 8.50823 18.9245 8.80743 19.0393 9.08438C19.1541 9.36133 19.3296 9.60894 19.553 9.80889L20.335 10.5089C20.5446 10.6965 20.7124 10.9262 20.8272 11.183C20.942 11.4399 21.0014 11.7181 21.0014 11.9994C21.0014 12.2807 20.942 12.5589 20.8272 12.8157C20.7124 13.0726 20.5446 13.3023 20.335 13.4899L19.553 14.1899C19.3295 14.39 19.1538 14.6377 19.0391 14.9149C18.9243 15.192 18.8733 15.4914 18.89 15.7909L18.948 16.8409C18.9634 17.1217 18.9195 17.4027 18.819 17.6654C18.7186 17.9281 18.5638 18.1667 18.3649 18.3655C18.1659 18.5644 17.9273 18.719 17.6645 18.8194C17.4018 18.9197 17.1208 18.9635 16.84 18.9479L15.791 18.8899C15.4916 18.8734 15.1924 18.9245 14.9155 19.0392C14.6385 19.154 14.3909 19.3295 14.191 19.5529L13.491 20.3349C13.3034 20.5446 13.0737 20.7123 12.8168 20.8271C12.56 20.942 12.2818 21.0013 12.0005 21.0013C11.7191 21.0013 11.4409 20.942 11.1841 20.8271C10.9273 20.7123 10.6976 20.5446 10.51 20.3349L9.80997 19.5529C9.6099 19.3294 9.36213 19.1538 9.085 19.039C8.80786 18.9242 8.50846 18.8733 8.20896 18.8899L7.15897 18.9479C6.87812 18.9634 6.59717 18.9194 6.33445 18.819C6.07174 18.7185 5.83317 18.5637 5.63433 18.3648C5.43549 18.1659 5.28085 17.9272 5.1805 17.6645C5.08015 17.4017 5.03635 17.1207 5.05196 16.8399L5.10997 15.7909C5.12643 15.4916 5.0754 15.1924 4.96064 14.9154C4.84588 14.6385 4.67033 14.3908 4.44696 14.1909L3.66496 13.4909C3.4553 13.3033 3.28756 13.0736 3.17273 12.8167C3.05789 12.5599 2.99854 12.2817 2.99854 12.0004C2.99854 11.7191 3.05789 11.4409 3.17273 11.184C3.28756 10.9272 3.4553 10.6975 3.66496 10.5099L4.44696 9.8099C4.67046 9.60983 4.84609 9.36206 4.96086 9.08493C5.07563 8.80779 5.12659 8.50839 5.10997 8.20889L5.05196 7.15889C5.03663 6.87813 5.08067 6.59729 5.18121 6.3347C5.28175 6.0721 5.43653 5.83366 5.63545 5.63493C5.83437 5.4362 6.07296 5.28164 6.33564 5.18135C6.59833 5.08106 6.87922 5.03729 7.15996 5.05289L8.20896 5.11089C8.5083 5.12736 8.8075 5.07633 9.08445 4.96157C9.3614 4.84681 9.60901 4.67125 9.80896 4.44789L10.51 3.66489Z" stroke="#C1C6C8" stroke-width="2"/>
<path d="M9.5 9.5H9.51V9.51H9.5V9.5ZM14.5 14.5H14.51V14.51H14.5V14.5Z" stroke="#C1C6C8" stroke-width="2.25" stroke-linejoin="round"/>
<path d="M15 9L9 15" stroke="#C1C6C8" stroke-width="2" stroke-linecap="round" stroke-linejoin="round"/>
</svg>
