<svg width="116" height="98" viewBox="0 0 116 98" fill="none" xmlns="http://www.w3.org/2000/svg">
<path d="M58 3.86667C54.9978 3.87201 52.0627 4.75446 49.5553 6.40555C47.0479 8.05663 45.0776 10.4044 43.8867 13.1602C50.0662 18.5847 54.8982 25.3733 58 32.9885C61.1046 25.3723 65.9399 18.5836 72.123 13.1602C70.9313 10.4029 68.9596 8.0541 66.4503 6.4029C63.9411 4.7517 61.0038 3.87013 58 3.86667Z" fill="#5B0888"/>
<path d="M88.9333 21.2667C88.939 15.9703 90.1579 10.7455 92.4965 5.99335C84.7775 8.49548 77.7775 12.8258 72.0923 18.6156C66.4072 24.4055 62.2053 31.4833 59.8444 39.2467C59.721 39.6392 59.4757 39.9822 59.1439 40.2256C58.8122 40.4691 58.4115 40.6004 58 40.6004C57.5885 40.6004 57.1878 40.4691 56.8561 40.2256C56.5244 39.9822 56.279 39.6392 56.1556 39.2467C53.7944 31.4835 49.5924 24.4058 43.9073 18.616C38.2222 12.8262 31.2223 8.49577 23.5035 5.99335C25.8418 10.7456 27.0607 15.9703 27.0667 21.2667V34.8C27.0667 43.004 30.3257 50.8721 36.1268 56.6732C41.928 62.4743 49.796 65.7333 58 65.7333C66.204 65.7333 74.0721 62.4743 79.8732 56.6732C85.6743 50.8721 88.9333 43.004 88.9333 34.8V21.2667Z" fill="#5B0888"/>
<path d="M86.9322 91.0803C87.2613 91.3401 87.8242 91.6951 88.6208 92.1455C89.4349 92.5958 90.2056 92.8209 90.933 92.8209C91.6777 92.8209 92.0501 92.5351 92.0501 91.9636C92.0501 91.7038 91.9462 91.4787 91.7383 91.2881C91.5305 91.0803 91.1495 90.8465 90.5953 90.5867C90.041 90.3269 89.6254 90.1277 89.3483 89.9892C89.0712 89.8333 88.6988 89.5908 88.2312 89.2618C87.7809 88.9154 87.4345 88.5603 87.192 88.1966C86.4992 87.2094 86.1528 85.9538 86.1528 84.4296C86.1528 82.9055 86.7157 81.6239 87.8415 80.5847C88.9846 79.5282 90.474 79 92.3099 79C93.5569 79 94.7086 79.1386 95.7651 79.4157C96.8216 79.6755 97.3672 80.0218 97.4018 80.4548C97.4018 80.5068 97.4018 80.5587 97.4018 80.6107C97.4018 81.2169 97.2113 81.9876 96.8303 82.9229C96.4492 83.8408 96.1808 84.3517 96.0249 84.4556C94.9165 83.8841 93.9206 83.5983 93.0373 83.5983C92.1713 83.5983 91.7383 83.9101 91.7383 84.5336C91.7383 84.9146 92.0588 85.2523 92.6996 85.5467C92.8381 85.616 93.0373 85.7113 93.2971 85.8325C93.5569 85.9538 93.8513 86.101 94.1804 86.2742C94.5268 86.43 94.8905 86.6379 95.2715 86.8977C95.6699 87.1401 96.0942 87.4692 96.5445 87.8849C97.4624 88.7508 97.9214 89.8939 97.9214 91.3141C97.9214 93.1673 97.4105 94.6828 96.3886 95.8605C95.3668 97.0382 93.7907 97.6444 91.6604 97.679C90.6212 97.679 89.6773 97.5924 88.8287 97.4192C87.9973 97.246 87.2699 96.9083 86.6464 96.406C86.0229 95.9038 85.7112 95.2976 85.7112 94.5875C85.7112 93.8774 85.8411 93.176 86.1009 92.4832C86.3607 91.7731 86.6378 91.3055 86.9322 91.0803Z" fill="#5B0888"/>
<path d="M73.7007 97.4712C72.1246 97.4712 71.3365 97.298 71.3365 96.9516V80.1171C71.3365 79.5282 71.605 79.2338 72.1419 79.2338H76.7142C79.2775 79.2338 81.122 79.762 82.2478 80.8185C83.3909 81.875 83.9624 83.4078 83.9624 85.4168C83.9624 87.0795 83.4255 88.6036 82.3517 89.9892C81.8148 90.6819 81.0268 91.2362 79.9876 91.6518C78.9484 92.0675 77.7361 92.2753 76.3505 92.2753V96.9256C76.3505 97.1334 76.0215 97.2807 75.3633 97.3672C74.7225 97.4365 74.1683 97.4712 73.7007 97.4712ZM76.3505 83.7542V87.8589H76.6883C77.2944 87.8589 77.8054 87.6684 78.221 87.2873C78.6367 86.9063 78.8445 86.3694 78.8445 85.6766C78.8445 84.9838 78.6973 84.4902 78.4029 84.1958C78.1258 83.9014 77.6235 83.7542 76.8961 83.7542H76.3505Z" fill="#5B0888"/>
<path d="M62.0175 92.9508V83.7022H60.173C59.8786 83.7022 59.6707 83.3298 59.5495 82.5851C59.4975 82.2214 59.4716 81.849 59.4716 81.468C59.4716 81.087 59.4975 80.7146 59.5495 80.3509C59.6707 79.6062 59.8786 79.2338 60.173 79.2338H68.902C69.1964 79.2338 69.3956 79.6062 69.4995 80.3509C69.5688 80.7146 69.6034 81.087 69.6034 81.468C69.6034 81.849 69.5688 82.2214 69.4995 82.5851C69.3956 83.3298 69.1964 83.7022 68.902 83.7022H67.1614V92.9508H68.9799C69.2744 92.9508 69.4822 93.3232 69.6034 94.0679C69.6727 94.4316 69.7073 94.804 69.7073 95.185C69.7073 95.566 69.6727 95.9384 69.6034 96.3021C69.4822 97.0468 69.2744 97.4192 68.9799 97.4192H60.225C59.9305 97.4192 59.7314 97.0468 59.6274 96.3021C59.5582 95.9384 59.5235 95.566 59.5235 95.185C59.5235 94.804 59.5582 94.4316 59.6274 94.0679C59.7314 93.3232 59.9305 92.9508 60.225 92.9508H62.0175Z" fill="#5B0888"/>
<path d="M48.7534 95.8865V79.7274C48.7534 79.3637 49.628 79.1819 51.3773 79.1819C53.1438 79.1819 54.0271 79.3637 54.0271 79.7274V92.4572H58.0279C58.3397 92.4572 58.5562 92.8642 58.6774 93.6782C58.7294 94.0766 58.7553 94.4836 58.7553 94.8992C58.7553 95.3149 58.7294 95.7392 58.6774 96.1722C58.5388 97.0036 58.3137 97.4192 58.0019 97.4192H50.0004C49.6193 97.4192 49.3162 97.2633 49.0911 96.9516C48.8659 96.6398 48.7534 96.2848 48.7534 95.8865Z" fill="#5B0888"/>
<path d="M41.1952 79.7534C41.1952 79.407 42.1305 79.2338 44.001 79.2338C45.8888 79.2338 46.8327 79.407 46.8327 79.7534V91.6778C46.8327 93.4444 46.2006 94.8906 44.9362 96.0163C43.6719 97.1248 41.9227 97.679 39.6885 97.679C37.4716 97.679 35.6617 97.1075 34.2588 95.9644C32.8733 94.804 32.1805 93.2452 32.1805 91.2881V79.7794C32.1805 79.433 33.1157 79.2598 34.9862 79.2598C36.874 79.2598 37.818 79.433 37.818 79.7794V91.496C37.818 91.8423 37.9998 92.1195 38.3635 92.3273C38.7445 92.5351 39.1429 92.639 39.5586 92.639C39.9742 92.639 40.3466 92.5438 40.6757 92.3533C41.0221 92.1628 41.1952 91.877 41.1952 91.496V79.7534Z" fill="#5B0888"/>
<path d="M27.4795 97.0035C27.4795 97.3499 26.6222 97.5231 24.9075 97.5231C23.1929 97.5231 22.3356 97.3499 22.3356 97.0035V83.962H19.2181C18.9237 83.962 18.7158 83.5637 18.5946 82.767C18.5426 82.3859 18.5167 81.9962 18.5167 81.5979C18.5167 81.1996 18.5426 80.8099 18.5946 80.4288C18.7158 79.6321 18.9237 79.2338 19.2181 79.2338H30.519C30.8135 79.2338 31.0213 79.6321 31.1425 80.4288C31.1945 80.8099 31.2205 81.1996 31.2205 81.5979C31.2205 81.9962 31.1945 82.3859 31.1425 82.767C31.0213 83.5637 30.8135 83.962 30.519 83.962H27.4795V97.0035Z" fill="#5B0888"/>
</svg>
