<svg width="15" height="37" viewBox="0 0 15 37" fill="none" xmlns="http://www.w3.org/2000/svg">
<path opacity="0.4" d="M1.93286 5.43606H13.0728" stroke="#0601B4" stroke-linecap="round" stroke-linejoin="round"/>
<path opacity="0.4" fill-rule="evenodd" clip-rule="evenodd" d="M4.22363 8.03979C4.22363 7.76365 4.44749 7.53979 4.72363 7.53979H4.72942C5.00557 7.53979 5.22942 7.76365 5.22942 8.03979C5.22942 8.31594 5.00557 8.53979 4.72942 8.53979H4.72363C4.44749 8.53979 4.22363 8.31594 4.22363 8.03979ZM7.50283 7.53979C7.22669 7.53979 7.00283 7.76365 7.00283 8.03979C7.00283 8.31594 7.22669 8.53979 7.50283 8.53979H7.50862C7.78477 8.53979 8.00862 8.31594 8.00862 8.03979C8.00862 7.76365 7.78477 7.53979 7.50862 7.53979H7.50283ZM10.2762 7.53979C10.0001 7.53979 9.77625 7.76365 9.77625 8.03979C9.77625 8.31594 10.0001 8.53979 10.2762 8.53979H10.282C10.5582 8.53979 10.782 8.31594 10.782 8.03979C10.782 7.76365 10.5582 7.53979 10.282 7.53979H10.2762ZM10.2762 10.1307C10.0001 10.1307 9.77625 10.3545 9.77625 10.6307C9.77625 10.9068 10.0001 11.1307 10.2762 11.1307H10.282C10.5582 11.1307 10.782 10.9068 10.782 10.6307C10.782 10.3545 10.5582 10.1307 10.282 10.1307H10.2762ZM7.00283 10.6307C7.00283 10.3545 7.22669 10.1307 7.50283 10.1307H7.50862C7.78477 10.1307 8.00862 10.3545 8.00862 10.6307C8.00862 10.9068 7.78477 11.1307 7.50862 11.1307H7.50283C7.22669 11.1307 7.00283 10.9068 7.00283 10.6307ZM4.72363 10.1307C4.44749 10.1307 4.22363 10.3545 4.22363 10.6307C4.22363 10.9068 4.44749 11.1307 4.72363 11.1307H4.72942C5.00557 11.1307 5.22942 10.9068 5.22942 10.6307C5.22942 10.3545 5.00557 10.1307 4.72942 10.1307H4.72363Z" fill="#0601B4"/>
<path d="M10.0273 0.5V2.69385" stroke="#0601B4" stroke-linecap="round" stroke-linejoin="round"/>
<path d="M4.97846 0.5V2.69385" stroke="#0601B4" stroke-linecap="round" stroke-linejoin="round"/>
<path fill-rule="evenodd" clip-rule="evenodd" d="M10.1489 1.55273H4.85685C3.02142 1.55273 1.875 2.64336 1.875 4.64808V10.6812C1.875 12.7174 3.02142 13.8333 4.85685 13.8333H10.1431C11.9843 13.8333 13.125 12.7363 13.125 10.7316V4.64808C13.1308 2.64336 11.9901 1.55273 10.1489 1.55273Z" stroke="#0601B4" stroke-linecap="round" stroke-linejoin="round"/>
</svg>
