<svg width="15" height="15" viewBox="0 0 15 15" fill="none" xmlns="http://www.w3.org/2000/svg">
<path d="M4.85747 1.52438L5.53059 1.30938C6.16059 1.10813 6.83434 1.43375 7.10434 2.07L7.64184 3.3375C7.87622 3.88938 7.74622 4.53875 7.32059 4.9425L6.13747 6.06625C6.21059 6.73875 6.43622 7.40063 6.81497 8.05188C7.17486 8.68199 7.65751 9.2335 8.23434 9.67375L9.65684 9.19875C10.1956 9.01938 10.7825 9.22625 11.1131 9.71188L11.8831 10.8431C12.2681 11.4081 12.1987 12.1869 11.7218 12.6656L11.2106 13.1788C10.7018 13.6894 9.97559 13.875 9.30309 13.665C7.71622 13.17 6.25747 11.7006 4.92622 9.25688C3.59309 6.80938 3.12309 4.73188 3.51497 3.02688C3.67997 2.30938 4.19122 1.7375 4.85872 1.52438" fill="#EEF1F7"/>
</svg>
