<svg width="18" height="18" viewBox="0 0 18 18" fill="none" xmlns="http://www.w3.org/2000/svg">
<path d="M8.99727 15.4035C8.89355 15.4035 8.6524 15.2116 8.27381 14.8279C7.89523 14.4441 7.70593 14.2 7.70593 14.0956C7.70593 13.9285 7.868 13.7875 8.19213 13.6726C8.51626 13.5578 8.78464 13.5003 8.99727 13.5003C9.2099 13.5003 9.47828 13.5578 9.80241 13.6726C10.1265 13.7875 10.2886 13.9285 10.2886 14.0956C10.2886 14.2 10.0993 14.4441 9.72073 14.8279C9.34215 15.2116 9.10099 15.4035 8.99727 15.4035ZM11.0976 13.281C11.0873 13.281 10.9835 13.2158 10.7865 13.0852C10.5894 12.9547 10.3262 12.8241 9.99689 12.6936C9.66757 12.5631 9.33437 12.4978 8.99727 12.4978C8.66017 12.4978 8.32697 12.5631 7.99765 12.6936C7.66833 12.8241 7.40644 12.9547 7.21196 13.0852C7.01748 13.2158 6.91246 13.281 6.8969 13.281C6.80355 13.281 6.5611 13.0852 6.16955 12.6936C5.778 12.302 5.58223 12.0592 5.58223 11.9652C5.58223 11.8974 5.60816 11.8373 5.66002 11.7851C6.06453 11.383 6.57277 11.0672 7.18473 10.8374C7.79669 10.6077 8.40087 10.4928 8.99727 10.4928C9.59367 10.4928 10.1979 10.6077 10.8098 10.8374C11.4218 11.0672 11.93 11.383 12.3345 11.7851C12.3864 11.8373 12.4123 11.8974 12.4123 11.9652C12.4123 12.0592 12.2165 12.302 11.825 12.6936C11.4334 13.0852 11.191 13.281 11.0976 13.281ZM13.2213 11.1507C13.1643 11.1507 13.1047 11.1298 13.0424 11.088C12.3371 10.5398 11.6837 10.1364 11.0821 9.87799C10.4805 9.61953 9.78556 9.4903 8.99727 9.4903C8.55645 9.4903 8.11434 9.54774 7.67093 9.66261C7.22752 9.77748 6.84115 9.91584 6.51184 10.0777C6.18252 10.2396 5.88821 10.4014 5.6289 10.5633C5.3696 10.7252 5.16475 10.8635 5.01435 10.9784C4.86395 11.0933 4.78357 11.1507 4.7732 11.1507C4.68503 11.1507 4.44647 10.9549 4.05752 10.5633C3.66856 10.1717 3.47408 9.9289 3.47408 9.83491C3.47408 9.77226 3.50001 9.71482 3.55187 9.66261C4.23644 8.97339 5.06621 8.4382 6.0412 8.05703C7.01618 7.67587 8.00154 7.48529 8.99727 7.48529C9.993 7.48529 10.9784 7.67587 11.9533 8.05703C12.9283 8.4382 13.7581 8.97339 14.4427 9.66261C14.4945 9.71482 14.5205 9.77226 14.5205 9.83491C14.5205 9.9289 14.326 10.1717 13.937 10.5633C13.5481 10.9549 13.3095 11.1507 13.2213 11.1507ZM15.3295 9.02821C15.2724 9.02821 15.2154 9.00471 15.1583 8.95772C14.23 8.13797 13.2667 7.52054 12.2684 7.10544C11.2701 6.69034 10.1797 6.48279 8.99727 6.48279C7.81484 6.48279 6.72446 6.69034 5.72614 7.10544C4.72782 7.52054 3.7645 8.13797 2.83619 8.95772C2.77914 9.00471 2.7221 9.02821 2.66505 9.02821C2.57689 9.02821 2.33703 8.83241 1.94548 8.44081C1.55393 8.0492 1.35815 7.80641 1.35815 7.71242C1.35815 7.64455 1.38408 7.5845 1.43595 7.53229C2.40575 6.56111 3.55965 5.80923 4.89766 5.27665C6.23568 4.74407 7.60221 4.47778 8.99727 4.47778C10.3923 4.47778 11.7589 4.74407 13.0969 5.27665C14.4349 5.80923 15.5888 6.56111 16.5586 7.53229C16.6105 7.5845 16.6364 7.64455 16.6364 7.71242C16.6364 7.80641 16.4406 8.0492 16.0491 8.44081C15.6575 8.83241 15.4177 9.02821 15.3295 9.02821Z" fill="black"/>
</svg>
