<svg width="19" height="19" viewBox="0 0 19 19" fill="none" xmlns="http://www.w3.org/2000/svg">
<path fill-rule="evenodd" clip-rule="evenodd" d="M2.27895 4.65395C2.72435 4.20855 3.32844 3.95833 3.95833 3.95833H13.4583C14.0882 3.95833 14.6923 4.20855 15.1377 4.65395C15.5831 5.09935 15.8333 5.70344 15.8333 6.33333V6.46915C16.1642 6.58613 16.4682 6.77609 16.721 7.02895C17.1664 7.47435 17.4167 8.07844 17.4167 8.70833V10.2917C17.4167 10.9215 17.1664 11.5256 16.721 11.971C16.4682 12.2239 16.1642 12.4139 15.8333 12.5308V12.6667C15.8333 13.2965 15.5831 13.9006 15.1377 14.346C14.6923 14.7914 14.0882 15.0417 13.4583 15.0417H3.95833C3.32844 15.0417 2.72435 14.7914 2.27895 14.346C1.83356 13.9006 1.58333 13.2965 1.58333 12.6667V6.33333C1.58333 5.70344 1.83356 5.09935 2.27895 4.65395ZM3.95833 5.54166C3.74837 5.54166 3.54701 5.62507 3.39854 5.77353C3.25007 5.922 3.16667 6.12336 3.16667 6.33333V12.6667C3.16667 12.8766 3.25007 13.078 3.39854 13.2265C3.54701 13.3749 3.74837 13.4583 3.95833 13.4583H13.4583C13.6683 13.4583 13.8697 13.3749 14.0181 13.2265C14.1666 13.078 14.25 12.8766 14.25 12.6667V11.875C14.25 11.4378 14.6044 11.0833 15.0417 11.0833C15.2516 11.0833 15.453 10.9999 15.6015 10.8515C15.7499 10.703 15.8333 10.5016 15.8333 10.2917V8.70833C15.8333 8.49836 15.7499 8.297 15.6015 8.14853C15.453 8.00007 15.2516 7.91666 15.0417 7.91666C14.6044 7.91666 14.25 7.56222 14.25 7.12499V6.33333C14.25 6.12336 14.1666 5.922 14.0181 5.77353C13.8697 5.62507 13.6683 5.54166 13.4583 5.54166H3.95833Z" fill="#F5F5F5"/>
<path d="M4.30667 6.96667C4.30667 6.68684 4.53351 6.46 4.81333 6.46H11.4C11.6798 6.46 11.9067 6.68684 11.9067 6.96667V12.0333C11.9067 12.3132 11.6798 12.54 11.4 12.54H4.81333C4.53351 12.54 4.30667 12.3132 4.30667 12.0333V6.96667Z" fill="#F5F5F5"/>
</svg>
